<?xml version="1.0" encoding="UTF-8"?>
<svg version="1.1" xmlns="http://www.w3.org/2000/svg" width="500" height="500">
<path d="M0 0 C2.87273792 -0.08621611 5.74492678 -0.14529934 8.61844254 -0.19853592 C9.91436435 -0.24530519 9.91436435 -0.24530519 11.23646641 -0.29301929 C16.8285116 -0.35939384 19.78381174 0.43224579 24.07474136 4.09028244 C25.81958686 7.57997343 25.54385169 11.27609035 25.07474136 15.09028244 C24.02972251 17.78487292 22.52179411 19.99007974 20.84427261 22.33246994 C20.39099594 23.00099487 19.93771927 23.66951981 19.47070694 24.35830307 C17.96179275 26.57425849 16.42462199 28.76900334 14.88724136 30.96528244 C13.80218976 32.54887071 12.71931321 34.1339512 11.63846207 35.72040939 C9.33055969 39.10240376 7.01191049 42.47664639 4.68509293 45.84565353 C-0.74614968 53.71968848 -6.08319079 61.65736019 -11.42699814 69.59086227 C-13.23877509 72.27929071 -15.05330277 74.96584475 -16.86837387 77.65205002 C-25.72165933 90.76360611 -34.47620834 103.93844732 -43.17525864 117.15278244 C-43.76755264 118.05193375 -44.35984665 118.95108505 -44.97008896 119.87748337 C-46.62863024 122.39658167 -48.28526851 124.91691651 -49.94088364 127.43793869 C-50.43418671 128.18784073 -50.92748978 128.93774277 -51.43574142 129.71036911 C-54.92395468 135.03271992 -56.45528289 137.62398656 -55.92525864 144.09028244 C-54.53162727 148.19561822 -53.03424721 150.42480762 -49.27340317 152.68159103 C-43.76606245 154.95020132 -37.80548075 154.38557923 -31.96041298 154.2546463 C-29.76120981 154.20670383 -27.5626323 154.17987529 -25.36301804 154.15867233 C-19.11444747 154.09477727 -12.86666783 153.99377694 -6.61886215 153.8778801 C-2.78535011 153.80822013 1.04783984 153.76319215 4.8818531 153.73271179 C6.336777 153.71599426 7.79162478 153.68966083 9.24619102 153.65332794 C22.03065934 153.33522763 22.03065934 153.33522763 25.94559097 156.39936447 C28.63121111 159.79357444 29.1505138 161.77125349 29.07474136 166.09028244 C27.09414481 170.84502583 24.26364563 174.51338132 20.88724136 178.34028244 C19.89266436 179.49038463 18.89918194 180.64143426 17.90677261 181.79340744 C17.42160172 182.35479416 16.93643082 182.91618088 16.43655777 183.49457932 C14.59568627 185.6516134 12.83144506 187.86439701 11.07474136 190.09028244 C7.5261899 194.5696015 3.84537261 198.9236828 0.14114761 203.27387619 C-3.27012854 207.28992152 -6.57177874 211.38120395 -9.84322739 215.51215744 C-12.25609955 218.49995412 -14.74321943 221.42084441 -17.23775864 224.34028244 C-21.04270029 228.79667424 -24.71324276 233.33199931 -28.30025864 237.96528244 C-32.77510427 243.73781715 -37.48349607 249.26787416 -42.29537582 254.76118088 C-45.95538008 258.94623058 -49.47432877 263.2131577 -52.91353989 267.58246994 C-55.29618952 270.5526856 -57.7638349 273.44629093 -60.23775864 276.34028244 C-64.04280867 280.79657637 -67.71324754 285.33200548 -71.30025864 289.96528244 C-75.77510427 295.73781715 -80.48349607 301.26787416 -85.29537582 306.76118088 C-88.95538008 310.94623058 -92.47432877 315.2131577 -95.91353989 319.58246994 C-98.29618952 322.5526856 -100.7638349 325.44629093 -103.23775864 328.34028244 C-107.04280867 332.79657637 -110.71324754 337.33200548 -114.30025864 341.96528244 C-118.76827526 347.72900774 -123.46552389 353.25453267 -128.27560043 358.73481369 C-132.15033421 363.15840477 -135.84660776 367.6734464 -139.43697739 372.33246994 C-140.92525864 374.09028244 -140.92525864 374.09028244 -142.92525864 375.09028244 C-142.31762318 369.24283861 -141.19656844 363.78497875 -139.6437645 358.12104416 C-139.41262955 357.26098267 -139.1814946 356.40092117 -138.94335556 355.51479721 C-138.18066944 352.68179406 -137.41040661 349.85091027 -136.64010239 347.01996994 C-136.09970782 345.01831999 -135.55980512 343.01653719 -135.02036667 341.01462936 C-133.59624828 335.73458679 -132.16577254 330.4562875 -130.73385239 325.17835617 C-129.30777239 319.91818736 -127.88720632 314.6565312 -126.46627426 309.39496994 C-126.18928003 308.37004566 -125.9122858 307.34512138 -125.62689781 306.28913879 C-124.25209389 301.20200398 -122.87912894 296.11438587 -121.50982285 291.02576828 C-117.13062489 274.76644174 -117.13062489 274.76644174 -114.89249325 266.87901497 C-114.09637452 264.07060794 -113.31238995 261.2588904 -112.52975273 258.44670105 C-112.01138411 256.60563096 -111.47368943 254.77003581 -110.93525314 252.93473434 C-108.57103493 244.82923558 -108.57103493 244.82923558 -110.92525864 237.09028244 C-114.40022682 234.57471409 -116.33197488 233.97891212 -120.58889389 234.27647018 C-123.82131124 234.80151657 -126.98983276 235.47739416 -130.18307114 236.20356369 C-131.36311722 236.45196503 -132.5431633 236.70036636 -133.75896835 236.95629501 C-137.52735297 237.75172054 -141.28887733 238.57492207 -145.05025864 239.40278244 C-148.79067996 240.21710434 -152.53212551 241.02484755 -156.2772789 241.81713486 C-158.60319663 242.31000343 -160.92647942 242.81554812 -163.24633408 243.33620834 C-172.43017978 245.29569026 -183.63635656 247.59991844 -192.14400864 242.48090744 C-197.25063879 238.49415232 -201.66468048 233.91397201 -202.73080063 227.3277092 C-203.35551264 220.13979551 -201.67284686 213.32979562 -199.26900864 206.62153244 C-198.9831842 205.79338028 -198.69735977 204.96522812 -198.40287399 204.11198044 C-197.76359029 202.26286176 -197.11940931 200.41543096 -196.47106552 198.56946945 C-194.56119435 193.12882505 -192.69007586 187.67477043 -190.81197739 182.22309494 C-190.37149749 180.9476683 -189.93100121 179.67224732 -189.49048996 178.39683151 C-185.24340979 166.08481001 -181.09125169 153.74117726 -176.94478989 141.39496994 C-176.59085537 140.34147102 -176.23692085 139.28797211 -175.87226105 138.20254898 C-172.61860192 128.5176992 -169.36690084 118.83219294 -166.11812973 109.14570236 C-161.7373951 96.08704237 -157.33695438 83.03524829 -152.90927505 69.99242783 C-151.91993398 67.0745785 -150.93403322 64.1555836 -149.9486351 61.2364006 C-148.37119383 56.56800602 -146.77943337 51.90472083 -145.17692757 47.24487305 C-144.58901133 45.52906058 -144.005445 43.81175016 -143.42668724 42.09282684 C-138.57597501 27.70484351 -132.96637273 15.08804424 -118.73775864 7.71528244 C-117.47608491 7.15261066 -116.2058174 6.60853856 -114.92525864 6.09028244 C-113.97650864 5.69840744 -113.02775864 5.30653244 -112.05025864 4.90278244 C-104.68070023 2.98669726 -96.8917405 2.92509251 -89.31075668 2.70136642 C-88.40668579 2.67195969 -87.5026149 2.64255295 -86.57114792 2.6122551 C-83.60985515 2.51687088 -80.64843599 2.42645272 -77.68697739 2.33637619 C-75.59922782 2.27074938 -73.5114848 2.20491407 -71.42374802 2.13888168 C-67.05216569 2.00139943 -62.68051637 1.86637104 -58.30880356 1.73310471 C-52.76652911 1.56397213 -47.22446222 1.38889409 -41.68243313 1.21192455 C-37.36761932 1.07480985 -33.05271028 0.94090033 -28.73776817 0.80788994 C-26.69806397 0.74465797 -24.65838829 0.68049739 -22.6187458 0.61530495 C-16.9804445 0.43605974 -11.34237851 0.27907807 -5.70256805 0.15566254 C-3.80153066 0.11091059 -1.90065907 0.05866016 0 0 Z " fill="#E85F24" transform="translate(391.9252586364746,48.90971755981445)"/>
<path d="M0 0 C-2.29063734 8.92670227 -5.12410967 17.64953638 -8.05078125 26.3828125 C-8.54660004 27.86941027 -9.04218476 29.35608613 -9.53755188 30.84283447 C-10.85369165 34.79011072 -12.17376394 38.73606071 -13.49481964 42.68169403 C-14.31663574 45.13735798 -15.13725562 47.59341837 -15.9574585 50.04962158 C-22.64715257 70.08265329 -29.37696896 90.10092653 -36.23974609 110.07543945 C-40.95951566 123.82023004 -45.55707724 137.60477812 -50.12158203 151.40185547 C-50.66278977 153.03492891 -51.20428919 154.66790572 -51.74609375 156.30078125 C-52.00823669 157.09119812 -52.27037964 157.88161499 -52.54046631 158.69598389 C-54.85740192 165.64572865 -57.28193208 172.55659938 -59.75718689 179.45149231 C-63.3112947 189.45529805 -64.23794512 197.33506511 -60.2578125 207.3828125 C-56.47124477 215.26169567 -51.05582293 218.71196834 -43.09765625 221.71875 C-33.80298242 224.60789197 -23.54477218 221.66924511 -14.3125 219.6796875 C-12.12891675 219.2226061 -9.94532269 218.76557631 -7.76171875 218.30859375 C-4.3597092 217.58866232 -0.9582692 216.86611645 2.44287109 216.14208984 C5.75226576 215.43986745 9.06349895 214.7468967 12.375 214.0546875 C13.39682373 213.83392548 14.41864746 213.61316345 15.47143555 213.38571167 C16.41672119 213.18865631 17.36200684 212.99160095 18.3359375 212.78857422 C19.16657715 212.61172089 19.9972168 212.43486755 20.85302734 212.25265503 C23 212 23 212 26 213 C12.76342202 229.14053595 12.76342202 229.14053595 6.125 236.9375 C2.35588524 241.36534753 -1.30800886 245.86347351 -4.91796875 250.421875 C-7.33084092 253.40967168 -9.81796079 256.33056197 -12.3125 259.25 C-16.11744166 263.7063918 -19.78798412 268.24171687 -23.375 272.875 C-27.84984563 278.64753471 -32.55823743 284.17759172 -37.37011719 289.67089844 C-41.03012145 293.85594814 -44.54907013 298.12287526 -47.98828125 302.4921875 C-50.37093089 305.46240316 -52.83857627 308.35600849 -55.3125 311.25 C-59.11755003 315.70629393 -62.7879889 320.24172304 -66.375 324.875 C-70.84984563 330.64753471 -75.55823743 336.17759172 -80.37011719 341.67089844 C-84.01960349 345.84392132 -87.52773049 350.09952633 -90.9609375 354.453125 C-93.50881271 357.63552852 -96.12109136 360.75941737 -98.75 363.875 C-99.21035645 364.4230127 -99.67071289 364.97102539 -100.14501953 365.53564453 C-102.64682097 368.4898315 -105.21735608 371.30837714 -108 374 C-107.40646497 368.42013579 -106.40976398 363.19224255 -104.93383789 357.78442383 C-104.72542267 357.00388138 -104.51700745 356.22333893 -104.30227661 355.41914368 C-103.61413217 352.84705144 -102.91844396 350.27706541 -102.22265625 347.70703125 C-101.7319198 345.87908464 -101.24164915 344.05101292 -100.7518158 342.2228241 C-99.45670738 337.39427656 -98.15516921 332.56748481 -96.85229492 327.74102783 C-95.82034533 323.91460021 -94.79244651 320.0870913 -93.76496315 316.25946236 C-92.75357816 312.49183989 -91.740989 308.72454143 -90.728405 304.95724106 C-90.22490881 303.08335283 -89.72171675 301.20938286 -89.21883011 299.33533096 C-86.75484437 290.15418664 -84.2822698 280.97631693 -81.72388172 271.82095432 C-80.76392435 268.38421274 -79.81218887 264.94521633 -78.86074638 261.50610924 C-78.41426328 259.9026332 -77.96332827 258.30038919 -77.50764656 256.69950294 C-76.88274918 254.50397122 -76.27279359 252.3047772 -75.66577148 250.10424805 C-75.31836411 248.87079147 -74.97095673 247.6373349 -74.61302185 246.36650085 C-73.86552826 242.2615284 -73.88217027 238.8009479 -76.125 235.1875 C-82.5391532 231.12520297 -90.27154351 233.79532808 -97.109375 235.30859375 C-98.85326508 235.67695091 -98.85326508 235.67695091 -100.63238525 236.05274963 C-104.34074374 236.83649042 -108.04561458 237.6352043 -111.75 238.4375 C-116.61716394 239.49069418 -121.48720495 240.52883872 -126.359375 241.55859375 C-127.46182556 241.80234238 -128.56427612 242.046091 -129.70013428 242.29722595 C-139.00564958 244.26317178 -148.20244296 245.76622048 -156.9921875 241.33984375 C-162.10890912 237.92537776 -165.83325975 232.91746562 -167.58984375 227.01953125 C-170.10673351 211.04152325 -159.33413884 190.91719671 -154.25246048 176.02370834 C-152.31717502 170.3473639 -150.39088706 164.66795212 -148.46258354 158.98923302 C-147.67717416 156.67662724 -146.891339 154.36416642 -146.10548401 152.05171204 C-141.75771829 139.25375662 -137.43786721 126.44647185 -133.125 113.63671875 C-132.79084517 112.64438358 -132.45669033 111.65204842 -132.11240959 110.62964249 C-129.10557722 101.70019216 -126.09944349 92.77050698 -123.0954895 83.84008789 C-121.51914657 79.15390066 -119.94165646 74.46810092 -118.3634491 69.78254128 C-117.78390072 68.06117344 -117.20477649 66.33966274 -116.62614441 64.61798668 C-114.7629818 59.07446681 -112.88884188 53.53482476 -111 48 C-110.69874584 47.11641941 -110.39749168 46.23283882 -110.08710861 45.32248306 C-109.15633828 42.60092748 -108.21875136 39.88181438 -107.27905273 37.16333008 C-106.99478204 36.33140231 -106.71051134 35.49947454 -106.41762638 34.64233685 C-101.63843636 20.89768457 -94.38231654 11.70683538 -81.22265625 5.2265625 C-72.68265362 1.97618574 -64.35538792 1.61138903 -55.3125 1.3671875 C-54.01481689 1.32562531 -52.71713379 1.28406311 -51.38012695 1.24124146 C-47.95124934 1.13169846 -44.52214638 1.03259169 -41.09289551 0.93554688 C-38.309084 0.855012 -35.52553083 0.76704844 -32.74195862 0.67867851 C-9.46141192 -0.05957749 -9.46141192 -0.05957749 0 0 Z " fill="#E85F24" transform="translate(247,77)"/>
</svg>
